<svg id="visual" viewBox="0 0 900 150" width="900" height="150" xmlns="http://www.w3.org/2000/svg" xmlns:xlink="http://www.w3.org/1999/xlink" version="1.1"><rect x="0" y="0" width="900" height="150" fill="#360568"></rect><path d="M0 59L13.7 60C27.3 61 54.7 63 82 69.2C109.3 75.3 136.7 85.7 163.8 85.2C191 84.7 218 73.3 245.2 74.2C272.3 75 299.7 88 327 92.3C354.3 96.7 381.7 92.3 409 93.3C436.3 94.3 463.7 100.7 491 96.7C518.3 92.7 545.7 78.3 573 79.5C600.3 80.7 627.7 97.3 654.8 105.8C682 114.3 709 114.7 736.2 112.8C763.3 111 790.7 107 818 100C845.3 93 872.7 83 886.3 78L900 73L900 151L886.3 151C872.7 151 845.3 151 818 151C790.7 151 763.3 151 736.2 151C709 151 682 151 654.8 151C627.7 151 600.3 151 573 151C545.7 151 518.3 151 491 151C463.7 151 436.3 151 409 151C381.7 151 354.3 151 327 151C299.7 151 272.3 151 245.2 151C218 151 191 151 163.8 151C136.7 151 109.3 151 82 151C54.7 151 27.3 151 13.7 151L0 151Z" fill="#401484"></path></svg>