<svg id="visual" viewBox="0 0 900 200" width="900" height="200" xmlns="http://www.w3.org/2000/svg" xmlns:xlink="http://www.w3.org/1999/xlink" version="1.1"><rect x="0" y="0" width="900" height="200" fill="#360568"></rect><path d="M0 73L21.5 70C43 67 86 61 128.8 67.3C171.7 73.7 214.3 92.3 257.2 105.7C300 119 343 127 385.8 127.3C428.7 127.7 471.3 120.3 514.2 117.5C557 114.7 600 116.3 642.8 108.5C685.7 100.7 728.3 83.3 771.2 74.5C814 65.7 857 65.3 878.5 65.2L900 65L900 201L878.5 201C857 201 814 201 771.2 201C728.3 201 685.7 201 642.8 201C600 201 557 201 514.2 201C471.3 201 428.7 201 385.8 201C343 201 300 201 257.2 201C214.3 201 171.7 201 128.8 201C86 201 43 201 21.5 201L0 201Z" fill="#2f2f2f" stroke-linecap="round" stroke-linejoin="miter"></path></svg>