<svg id="visual" viewBox="0 0 900 150" width="900" height="150" xmlns="http://www.w3.org/2000/svg" xmlns:xlink="http://www.w3.org/1999/xlink" version="1.1"><rect x="0" y="0" width="900" height="150" fill="#401484"></rect><path d="M0 73L13.7 71.2C27.3 69.3 54.7 65.7 82 68.3C109.3 71 136.7 80 163.8 88.8C191 97.7 218 106.3 245.2 101.8C272.3 97.3 299.7 79.7 327 77.5C354.3 75.3 381.7 88.7 409 94.7C436.3 100.7 463.7 99.3 491 99.7C518.3 100 545.7 102 573 97C600.3 92 627.7 80 654.8 80.5C682 81 709 94 736.2 98C763.3 102 790.7 97 818 98.3C845.3 99.7 872.7 107.3 886.3 111.2L900 115L900 151L886.3 151C872.7 151 845.3 151 818 151C790.7 151 763.3 151 736.2 151C709 151 682 151 654.8 151C627.7 151 600.3 151 573 151C545.7 151 518.3 151 491 151C463.7 151 436.3 151 409 151C381.7 151 354.3 151 327 151C299.7 151 272.3 151 245.2 151C218 151 191 151 163.8 151C136.7 151 109.3 151 82 151C54.7 151 27.3 151 13.7 151L0 151Z" fill="#5B2A86"></path></svg>