<svg id="visual" viewBox="0 0 900 200" width="900" height="200" xmlns="http://www.w3.org/2000/svg" xmlns:xlink="http://www.w3.org/1999/xlink" version="1.1"><rect x="0" y="0" width="900" height="200" fill="#5B2A86"></rect><path d="M0 71L21.5 83.2C43 95.3 86 119.7 128.8 127.5C171.7 135.3 214.3 126.7 257.2 116.8C300 107 343 96 385.8 96.2C428.7 96.3 471.3 107.7 514.2 117.2C557 126.7 600 134.3 642.8 124.8C685.7 115.3 728.3 88.7 771.2 85.5C814 82.3 857 102.7 878.5 112.8L900 123L900 201L878.5 201C857 201 814 201 771.2 201C728.3 201 685.7 201 642.8 201C600 201 557 201 514.2 201C471.3 201 428.7 201 385.8 201C343 201 300 201 257.2 201C214.3 201 171.7 201 128.8 201C86 201 43 201 21.5 201L0 201Z" fill="#360568" stroke-linecap="round" stroke-linejoin="miter"></path></svg>